<svg xmlns="http://www.w3.org/2000/svg" xmlns:xlink="http://www.w3.org/1999/xlink" width="500" zoomAndPan="magnify" viewBox="0 0 375 374.999991" height="500" preserveAspectRatio="xMidYMid meet" version="1.0"><defs><g/></defs><rect x="-37.5" width="450" fill="#ffffff" y="-37.499999" height="449.999989" fill-opacity="1"/><rect x="-37.5" width="450" fill="#ffffff" y="-37.499999" height="449.999989" fill-opacity="1"/><rect x="-37.5" width="450" fill="#000000" y="-37.499999" height="449.999989" fill-opacity="1"/><g fill="#ff00ff" fill-opacity="1"><g transform="translate(157.721502, 313.55428)"><g><path d="M 135.609375 -81.375 L 157.6875 -81.375 L 157.6875 -18.625 C 149.71875 -12.03125 140.445312 -6.96875 129.875 -3.4375 C 119.300781 0.0820312 108.265625 1.84375 96.765625 1.84375 C 80.523438 1.84375 65.890625 -1.71875 52.859375 -8.84375 C 39.835938 -15.96875 29.609375 -25.773438 22.171875 -38.265625 C 14.742188 -50.753906 11.03125 -64.816406 11.03125 -80.453125 C 11.03125 -96.078125 14.742188 -110.171875 22.171875 -122.734375 C 29.609375 -135.304688 39.878906 -145.113281 52.984375 -152.15625 C 66.085938 -159.207031 80.835938 -162.734375 97.234375 -162.734375 C 110.097656 -162.734375 121.78125 -160.625 132.28125 -156.40625 C 142.78125 -152.195312 151.707031 -146.035156 159.0625 -137.921875 L 144.8125 -123.671875 C 131.9375 -136.078125 116.382812 -142.28125 98.15625 -142.28125 C 85.894531 -142.28125 74.894531 -139.632812 65.15625 -134.34375 C 55.425781 -129.0625 47.800781 -121.707031 42.28125 -112.28125 C 36.769531 -102.863281 34.015625 -92.253906 34.015625 -80.453125 C 34.015625 -68.804688 36.769531 -58.269531 42.28125 -48.84375 C 47.800781 -39.414062 55.425781 -32.019531 65.15625 -26.65625 C 74.894531 -21.300781 85.816406 -18.625 97.921875 -18.625 C 112.328125 -18.625 124.890625 -22.070312 135.609375 -28.96875 Z M 135.609375 -81.375 "/></g></g></g><g fill="#00ffff" fill-opacity="1"><g transform="translate(149.102875, 313.704721)"><g><path d="M 135.609375 -81.375 L 157.6875 -81.375 L 157.6875 -18.625 C 149.71875 -12.03125 140.445312 -6.96875 129.875 -3.4375 C 119.300781 0.0820312 108.265625 1.84375 96.765625 1.84375 C 80.523438 1.84375 65.890625 -1.71875 52.859375 -8.84375 C 39.835938 -15.96875 29.609375 -25.773438 22.171875 -38.265625 C 14.742188 -50.753906 11.03125 -64.816406 11.03125 -80.453125 C 11.03125 -96.078125 14.742188 -110.171875 22.171875 -122.734375 C 29.609375 -135.304688 39.878906 -145.113281 52.984375 -152.15625 C 66.085938 -159.207031 80.835938 -162.734375 97.234375 -162.734375 C 110.097656 -162.734375 121.78125 -160.625 132.28125 -156.40625 C 142.78125 -152.195312 151.707031 -146.035156 159.0625 -137.921875 L 144.8125 -123.671875 C 131.9375 -136.078125 116.382812 -142.28125 98.15625 -142.28125 C 85.894531 -142.28125 74.894531 -139.632812 65.15625 -134.34375 C 55.425781 -129.0625 47.800781 -121.707031 42.28125 -112.28125 C 36.769531 -102.863281 34.015625 -92.253906 34.015625 -80.453125 C 34.015625 -68.804688 36.769531 -58.269531 42.28125 -48.84375 C 47.800781 -39.414062 55.425781 -32.019531 65.15625 -26.65625 C 74.894531 -21.300781 85.816406 -18.625 97.921875 -18.625 C 112.328125 -18.625 124.890625 -22.070312 135.609375 -28.96875 Z M 135.609375 -81.375 "/></g></g></g><g fill="#ffffff" fill-opacity="1"><g transform="translate(153.412187, 313.6295)"><g><path d="M 135.609375 -81.375 L 157.6875 -81.375 L 157.6875 -18.625 C 149.71875 -12.03125 140.445312 -6.96875 129.875 -3.4375 C 119.300781 0.0820312 108.265625 1.84375 96.765625 1.84375 C 80.523438 1.84375 65.890625 -1.71875 52.859375 -8.84375 C 39.835938 -15.96875 29.609375 -25.773438 22.171875 -38.265625 C 14.742188 -50.753906 11.03125 -64.816406 11.03125 -80.453125 C 11.03125 -96.078125 14.742188 -110.171875 22.171875 -122.734375 C 29.609375 -135.304688 39.878906 -145.113281 52.984375 -152.15625 C 66.085938 -159.207031 80.835938 -162.734375 97.234375 -162.734375 C 110.097656 -162.734375 121.78125 -160.625 132.28125 -156.40625 C 142.78125 -152.195312 151.707031 -146.035156 159.0625 -137.921875 L 144.8125 -123.671875 C 131.9375 -136.078125 116.382812 -142.28125 98.15625 -142.28125 C 85.894531 -142.28125 74.894531 -139.632812 65.15625 -134.34375 C 55.425781 -129.0625 47.800781 -121.707031 42.28125 -112.28125 C 36.769531 -102.863281 34.015625 -92.253906 34.015625 -80.453125 C 34.015625 -68.804688 36.769531 -58.269531 42.28125 -48.84375 C 47.800781 -39.414062 55.425781 -32.019531 65.15625 -26.65625 C 74.894531 -21.300781 85.816406 -18.625 97.921875 -18.625 C 112.328125 -18.625 124.890625 -22.070312 135.609375 -28.96875 Z M 135.609375 -81.375 "/></g></g></g><g fill="#ff00ff" fill-opacity="1"><g transform="translate(25.678015, 230.22277)"><g><path d="M 167.03125 -165.375 L 167.03125 0 L 143.40625 0 L 143.40625 -73.703125 L 48.4375 -73.703125 L 48.4375 0 L 24.8125 0 L 24.8125 -165.375 L 48.4375 -165.375 L 48.4375 -94.265625 L 143.40625 -94.265625 L 143.40625 -165.375 Z M 167.03125 -165.375 "/></g></g></g><g fill="#00ffff" fill-opacity="1"><g transform="translate(16.818552, 230.22277)"><g><path d="M 167.03125 -165.375 L 167.03125 0 L 143.40625 0 L 143.40625 -73.703125 L 48.4375 -73.703125 L 48.4375 0 L 24.8125 0 L 24.8125 -165.375 L 48.4375 -165.375 L 48.4375 -94.265625 L 143.40625 -94.265625 L 143.40625 -165.375 Z M 167.03125 -165.375 "/></g></g></g><g fill="#ffffff" fill-opacity="1"><g transform="translate(21.248284, 230.22277)"><g><path d="M 167.03125 -165.375 L 167.03125 0 L 143.40625 0 L 143.40625 -73.703125 L 48.4375 -73.703125 L 48.4375 0 L 24.8125 0 L 24.8125 -165.375 L 48.4375 -165.375 L 48.4375 -94.265625 L 143.40625 -94.265625 L 143.40625 -165.375 Z M 167.03125 -165.375 "/></g></g></g></svg>